<svg width="182" height="56" viewBox="0 0 182 56" fill="none" xmlns="http://www.w3.org/2000/svg">
<path d="M41.3523 25.2093H48.9264V27.7684C50.9393 26.6262 52.8629 25.8242 54.6955 25.3639C56.5298 24.9036 58.3246 24.6735 60.0816 24.6735C62.3848 24.6735 64.5162 25.0101 66.4776 25.6833C68.4389 26.3566 70.1358 27.3596 71.5699 28.689C73.0023 30.02 74.1239 31.6791 74.9345 33.6646C75.7452 35.6517 76.1505 37.9514 76.1505 40.5603V55.4012H68.6021V41.7883C68.6021 40.1344 68.3668 38.6539 67.8979 37.3503C67.4291 36.045 66.7541 34.9458 65.8764 34.0493C64.9971 33.1545 63.9322 32.4709 62.6785 32.002C61.4247 31.5331 60.0215 31.2978 58.4689 31.2978C57.6496 31.2978 56.8098 31.3837 55.9493 31.5538C55.0871 31.7255 54.2438 31.9677 53.416 32.2837C52.5881 32.5997 51.7912 32.9913 51.0235 33.4602C50.2558 33.9291 49.5568 34.4632 48.9247 35.0592V55.4012H41.3505V25.2076L41.3523 25.2093Z" fill="white"/>
<path d="M111.379 40.382C111.379 38.1647 111.785 36.0969 112.595 34.1767C113.406 32.2583 114.591 30.594 116.152 29.1874C117.713 27.7807 119.623 26.6764 121.883 25.8743C124.144 25.0722 126.723 24.6721 129.623 24.6721C130.885 24.6721 132.156 24.7493 133.435 24.9022C134.715 25.0551 135.946 25.2732 137.133 25.5549C138.318 25.8365 139.431 26.1697 140.472 26.5527C141.513 26.9374 142.416 27.3582 143.184 27.8202L139.678 33.5258C138.025 32.758 136.458 32.1947 134.983 31.8375C133.508 31.4785 132.01 31.2999 130.492 31.2999C128.752 31.2999 127.191 31.5266 125.81 31.9783C124.429 32.43 123.256 33.062 122.291 33.871C121.327 34.6816 120.594 35.6366 120.09 36.7375C119.587 37.8384 119.336 39.0355 119.336 40.3322C119.336 41.6289 119.604 42.8277 120.142 43.9269C120.68 45.0279 121.439 45.9742 122.419 46.7677C123.4 47.5612 124.585 48.1829 125.976 48.6346C127.366 49.0863 128.915 49.313 130.62 49.313C132.496 49.313 134.267 49.0485 135.929 48.5195C137.592 47.9906 139.141 47.2829 140.573 46.395L144.079 52.1022C143.175 52.6484 142.195 53.1551 141.137 53.624C140.079 54.0928 138.949 54.4982 137.746 54.8399C136.544 55.1817 135.282 55.4497 133.959 55.6454C132.637 55.8412 131.268 55.9391 129.853 55.9391C126.969 55.9391 124.386 55.5476 122.1 54.7627C119.814 53.9778 117.878 52.8906 116.291 51.5011C114.704 50.1117 113.49 48.4697 112.645 46.5753C111.8 44.6826 111.378 42.6182 111.378 40.3837" fill="white"/>
<path d="M155.031 45.629C155.031 46.1236 155.16 46.5977 155.416 47.0494C155.672 47.5011 156.081 47.903 156.644 48.2516C157.207 48.602 157.927 48.8819 158.806 49.0966C159.684 49.3096 160.747 49.4161 161.992 49.4161C163.323 49.4161 164.61 49.2976 165.857 49.0588C167.102 48.8201 168.261 48.5041 169.336 48.1125C170.412 47.7209 171.384 47.2692 172.253 46.7557C173.123 46.2439 173.848 45.7166 174.427 45.1687V43.8376C173.266 43.513 172.119 43.2417 170.985 43.0184C169.85 42.7968 168.768 42.6216 167.736 42.4946C166.703 42.3675 165.731 42.2781 164.819 42.2266C163.907 42.1751 163.109 42.1493 162.427 42.1493C161.012 42.1493 159.833 42.2421 158.896 42.431C157.958 42.6182 157.199 42.8707 156.618 43.185C156.038 43.501 155.629 43.872 155.39 44.2979C155.152 44.7256 155.031 45.1687 155.031 45.629ZM147.048 45.8849C147.048 44.4353 147.364 43.1129 147.995 41.9192C148.625 40.7255 149.573 39.6985 150.835 38.8363C152.098 37.9758 153.671 37.3094 155.557 36.8405C157.441 36.3717 159.638 36.1364 162.145 36.1364C164.005 36.1364 165.961 36.2738 168.017 36.5451C170.073 36.8182 172.193 37.2356 174.375 37.7989C174.29 36.844 173.999 35.9612 173.505 35.1505C173.01 34.3399 172.323 33.6408 171.445 33.0517C170.566 32.4626 169.51 32.0075 168.273 31.6829C167.037 31.36 165.633 31.1968 164.064 31.1968C163.21 31.1968 162.272 31.2484 161.249 31.3497C160.225 31.4527 159.167 31.6056 158.076 31.81C156.984 32.0144 155.906 32.2703 154.839 32.5777C153.772 32.8851 152.78 33.2527 151.857 33.6786L149.554 27.4613C150.696 27.0525 151.921 26.6764 153.226 26.3346C154.532 25.9945 155.866 25.6991 157.23 25.4518C158.595 25.2045 159.959 25.0121 161.324 24.8764C162.688 24.7408 164.01 24.6721 165.29 24.6721C170.935 24.6721 175.133 26.113 177.879 28.9967C180.625 31.8804 181.999 36.2978 181.999 42.2507V55.4016H174.425V52.5608C173.64 53.0211 172.783 53.4556 171.854 53.8661C170.925 54.2749 169.913 54.6338 168.823 54.9413C167.731 55.2487 166.559 55.4909 165.304 55.6712C164.05 55.8498 162.724 55.9391 161.326 55.9391C158.971 55.9391 156.903 55.6832 155.121 55.1714C153.338 54.6596 151.849 53.952 150.655 53.0469C149.461 52.1435 148.561 51.0803 147.955 49.8609C147.349 48.6415 147.047 47.3156 147.047 45.8815" fill="white"/>
<mask id="mask0_1_2" style="mask-type:luminance" maskUnits="userSpaceOnUse" x="81" y="22" width="30" height="34">
<path d="M110.004 22.812H81.7112V55.5922H110.004V22.812Z" fill="white"/>
</mask>
<g mask="url(#mask0_1_2)">
<path d="M108.298 55.4031V48.5606H99.954V24.1893H99.93L99.954 24.1395C99.9437 24.1566 99.9334 24.1738 99.9231 24.191L84.2664 28.9141L84.4879 35.8666L92.1514 34.125V48.5606H83.4145V55.4031H108.296H108.298Z" fill="white"/>
</g>
<path d="M34.0821 55.4031V25.1837H26.5079V45.5258C25.9961 46.072 25.3864 46.5752 24.6788 47.0355C23.9711 47.4958 23.2069 47.8925 22.3893 48.2257C21.5701 48.5589 20.713 48.8182 19.8182 49.0055C18.9234 49.1944 18.0389 49.2871 17.1698 49.2871C15.327 49.2871 13.7881 49.0604 12.5515 48.6087C11.3149 48.157 10.3256 47.5215 9.58365 46.7023C8.84169 45.8848 8.31785 44.8989 8.01042 43.7465C7.70299 42.5958 7.55013 41.3196 7.55013 39.9216V36.825H0V40.9968C0 43.3686 0.290257 45.4794 0.870772 47.3292C1.44957 49.1806 2.36843 50.7401 3.62221 52.0111C4.87598 53.282 6.487 54.249 8.45869 54.9154C10.4287 55.58 12.7954 55.9132 15.5588 55.9132C17.2471 55.9132 19.0299 55.6745 20.9071 55.197C22.7826 54.7196 24.6513 53.9261 26.5113 52.8166V55.4014H34.0855L34.0821 55.4031Z" fill="white"/>
<path d="M0 25.1837V36.825L7.54841 29.6355V25.1837H0Z" fill="white"/>
<path d="M7.60593 0.128932V2.3342H3.0786V4.71637H6.46723V6.8581H3.0786V11.4301H0.371819V0.128932H7.60764H7.60593Z" fill="white"/>
<path d="M27.033 9.43263H22.8852L22.2206 11.4284H19.3867L23.4073 0.128932H26.5418L30.5642 11.4301H27.6994L27.0347 9.43434L27.033 9.43263ZM26.3357 7.30808L24.9582 3.17062L23.5963 7.30808H26.3357Z" fill="white"/>
<path d="M43.1186 2.77705C43.5944 1.90284 44.2556 1.22099 45.1058 0.733224C45.9559 0.245454 46.9194 -0.000148773 47.9946 -0.000148773C49.3136 -0.000148773 50.4437 0.353656 51.3832 1.06298C52.3227 1.77059 52.9513 2.73755 53.2673 3.9604H50.2909C50.0693 3.48809 49.755 3.12914 49.348 2.88182C48.9409 2.6345 48.4806 2.51084 47.9637 2.51084C47.129 2.51084 46.454 2.80625 45.937 3.39707C45.4201 3.98789 45.1607 4.77622 45.1607 5.76378C45.1607 6.75134 45.4183 7.53967 45.937 8.13049C46.454 8.72131 47.129 9.01672 47.9637 9.01672C48.4806 9.01672 48.9426 8.89306 49.348 8.64574C49.755 8.39842 50.0676 8.03947 50.2909 7.56715H53.2673C52.9513 8.79001 52.3227 9.75353 51.3832 10.456C50.4437 11.1584 49.3136 11.5105 47.9946 11.5105C46.9177 11.5105 45.9542 11.2666 45.1058 10.7789C44.2556 10.2911 43.5944 9.61098 43.1186 8.74192C42.6429 7.87287 42.4058 6.88015 42.4058 5.76378C42.4058 4.64741 42.6429 3.65297 43.1186 2.77705Z" fill="white"/>
<path d="M68.6722 0.128932V6.88901C68.6722 7.56571 68.8354 8.08611 69.1635 8.45022C69.4898 8.81433 69.9707 8.9981 70.6044 8.9981C71.2382 8.9981 71.7225 8.81605 72.0609 8.45022C72.3992 8.08611 72.5675 7.56399 72.5675 6.88901V0.128932H75.2743V6.87355C75.2743 7.88173 75.0631 8.73532 74.6406 9.43263C74.2181 10.1299 73.6513 10.6555 72.9385 11.011C72.2258 11.3648 71.4323 11.5417 70.5563 11.5417C69.6804 11.5417 68.8972 11.3682 68.2051 11.0179C67.5129 10.6692 66.9685 10.1437 66.5666 9.4395C66.1647 8.73704 65.9655 7.88001 65.9655 6.87184V0.128932H68.6722Z" fill="white"/>
<path d="M90.9615 9.30382H94.5081V11.4284H88.2547V0.128932H90.9615V9.30382Z" fill="white"/>
<path d="M114.123 0.836542C114.999 1.30885 115.677 1.97181 116.158 2.82541C116.639 3.679 116.878 4.66313 116.878 5.77951C116.878 6.89588 116.637 7.86627 116.158 8.72502C115.677 9.58377 114.997 10.2484 114.116 10.7208C113.235 11.1931 112.213 11.4284 111.052 11.4284H106.889V0.128932H111.052C112.223 0.128932 113.247 0.36423 114.123 0.836542ZM113.268 8.19259C113.838 7.6241 114.123 6.81859 114.123 5.77779C114.123 4.73698 113.838 3.92632 113.268 3.34753C112.697 2.76873 111.901 2.47847 110.877 2.47847H109.594V9.04619H110.877C111.901 9.04619 112.697 8.7628 113.268 8.19259Z" fill="white"/>
<path d="M136.399 9.43263H132.251L131.587 11.4284H128.753L132.773 0.128932H135.908L139.93 11.4301H137.065L136.401 9.43434L136.399 9.43263ZM135.702 7.30808L134.324 3.17062L132.962 7.30808H135.702Z" fill="white"/>
<path d="M159.467 0.836542C160.343 1.30885 161.021 1.97181 161.502 2.82541C161.983 3.679 162.222 4.66313 162.222 5.77951C162.222 6.89588 161.981 7.86627 161.502 8.72502C161.021 9.58377 160.341 10.2484 159.46 10.7208C158.579 11.1931 157.557 11.4284 156.396 11.4284H152.233V0.128932H156.396C157.567 0.128932 158.591 0.36423 159.467 0.836542ZM158.611 8.19259C159.182 7.6241 159.467 6.81859 159.467 5.77779C159.467 4.73698 159.182 3.92632 158.611 3.34753C158.041 2.76873 157.244 2.47847 156.221 2.47847H154.938V9.04619H156.221C157.244 9.04619 158.041 8.7628 158.611 8.19259Z" fill="white"/>
<path d="M177.529 2.3342V4.62019H181.155V6.74474H177.529V9.22309H181.629V11.4284H174.821V0.128932H181.629V2.3342H177.529Z" fill="white"/>
</svg>
