<svg width="182" height="67" viewBox="0 0 182 67" fill="none" xmlns="http://www.w3.org/2000/svg">
<mask id="mask0_65_23519" style="mask-type:luminance" maskUnits="userSpaceOnUse" x="0" y="23" width="182" height="44">
<path d="M182 23.3528H0V66.4273H182V23.3528Z" fill="white"/>
</mask>
<g mask="url(#mask0_65_23519)">
<mask id="mask1_65_23519" style="mask-type:luminance" maskUnits="userSpaceOnUse" x="0" y="23" width="182" height="44">
<path d="M182 23.3542H0V66.4287H182V23.3542Z" fill="white"/>
</mask>
<g mask="url(#mask1_65_23519)">
<path d="M34.0817 54.6176V24.3984H26.5076V44.7403C25.9958 45.2865 25.3861 45.7897 24.6785 46.25C23.9709 46.7103 23.2066 47.107 22.3891 47.4402C21.5699 47.7734 20.7129 48.0327 19.818 48.2199C18.9232 48.4089 18.0387 48.5016 17.1697 48.5016C15.3268 48.5016 13.788 48.2749 12.5514 47.8232C11.3148 47.3715 10.3255 46.736 9.58356 45.9168C8.8416 45.0993 8.31777 44.1134 8.01034 42.961C7.70291 41.8103 7.55006 40.5342 7.55006 39.1362V36.0395H0V40.2113C0 42.5832 0.290255 44.6939 0.869047 46.5454C1.44784 48.3968 2.36669 49.9563 3.62046 51.2272C4.87422 52.4982 6.48522 53.4651 8.45689 54.1315C10.4268 54.7962 12.7935 55.1294 15.557 55.1294C17.2453 55.1294 19.028 54.8906 20.9052 54.4132C22.7807 53.9357 24.6493 53.1422 26.5094 52.0327V54.6176H34.0835H34.0817Z" fill="black"/>
<path d="M41.3484 24.4253H48.9225V26.9843C50.9354 25.8422 52.859 25.0401 54.6915 24.5798C56.5258 24.1195 58.3206 23.8894 60.0776 23.8894C62.3807 23.8894 64.5121 24.226 66.4735 24.8993C68.4348 25.5725 70.1317 26.5755 71.5658 27.9049C72.9982 29.2359 74.1197 30.895 74.9303 32.8804C75.741 34.8676 76.1463 37.1673 76.1463 39.7761V54.6169H68.598V41.0041C68.598 39.3502 68.3627 37.8697 67.8938 36.5661C67.4249 35.2609 66.75 34.1617 65.8723 33.2651C64.993 32.3703 63.9282 31.6868 62.6744 31.2179C61.4206 30.749 60.0174 30.5137 58.4648 30.5137C57.6456 30.5137 56.8057 30.5996 55.9453 30.7696C55.0831 30.9414 54.2398 31.1836 53.412 31.4996C52.5842 31.8156 51.7873 32.2072 51.0195 32.6761C50.2518 33.1449 49.5528 33.6791 48.9208 34.275V54.6169H41.3467V24.4235L41.3484 24.4253Z" fill="black"/>
<path d="M111.378 39.5982C111.378 37.381 111.783 35.3131 112.594 33.393C113.404 31.4746 114.589 29.8103 116.151 28.4037C117.712 26.9971 119.622 25.8927 121.882 25.0907C124.142 24.2886 126.722 23.8884 129.621 23.8884C130.883 23.8884 132.154 23.9657 133.434 24.1186C134.713 24.2714 135.945 24.4895 137.131 24.7712C138.316 25.0529 139.429 25.3861 140.47 25.7691C141.511 26.1538 142.414 26.5746 143.182 27.0366L139.677 32.7421C138.023 31.9743 136.456 31.411 134.981 31.0538C133.506 30.6948 132.008 30.5162 130.49 30.5162C128.75 30.5162 127.189 30.7429 125.808 31.1946C124.427 31.6463 123.254 32.2783 122.289 33.0873C121.325 33.8979 120.592 34.8528 120.089 35.9537C119.586 37.0547 119.335 38.2517 119.335 39.5484C119.335 40.8451 119.603 42.0439 120.14 43.1431C120.678 44.244 121.437 45.1904 122.418 45.9838C123.398 46.7773 124.583 47.3991 125.975 47.8508C127.364 48.3025 128.913 48.5292 130.619 48.5292C132.494 48.5292 134.265 48.2647 135.927 47.7357C137.59 47.2067 139.139 46.4991 140.571 45.6112L144.077 51.3184C143.173 51.8645 142.193 52.3712 141.135 52.84C140.077 53.3089 138.947 53.7142 137.745 54.056C136.542 54.3978 135.28 54.6657 133.957 54.8615C132.635 55.0573 131.266 55.1552 129.851 55.1552C126.967 55.1552 124.384 54.7636 122.098 53.9787C119.812 53.1938 117.877 52.1067 116.29 50.7172C114.703 49.3278 113.488 47.6859 112.643 45.7915C111.798 43.8988 111.376 41.8344 111.376 39.6" fill="black"/>
<path d="M155.032 44.8422C155.032 45.3369 155.161 45.8109 155.417 46.2626C155.673 46.7143 156.082 47.1162 156.645 47.4648C157.208 47.8152 157.928 48.0951 158.807 48.3098C159.685 48.5228 160.748 48.6293 161.993 48.6293C163.324 48.6293 164.611 48.5108 165.858 48.272C167.103 48.0333 168.262 47.7173 169.337 47.3257C170.413 46.9341 171.385 46.4824 172.254 45.9689C173.124 45.4571 173.849 44.9298 174.428 44.3819V43.0509C173.267 42.7263 172.12 42.4549 170.986 42.2317C169.851 42.0101 168.769 41.8349 167.737 41.7078C166.704 41.5807 165.732 41.4914 164.82 41.4399C163.908 41.3884 163.11 41.3626 162.428 41.3626C161.013 41.3626 159.835 41.4554 158.897 41.6443C157.959 41.8315 157.2 42.084 156.619 42.3983C156.039 42.7143 155.63 43.0852 155.391 43.5112C155.153 43.9388 155.032 44.3819 155.032 44.8422ZM147.05 45.0981C147.05 43.6486 147.366 42.3261 147.996 41.1325C148.626 39.9388 149.574 38.9118 150.837 38.0496C152.099 37.1891 153.672 36.5227 155.558 36.0539C157.442 35.585 159.639 35.3497 162.146 35.3497C164.006 35.3497 165.963 35.4871 168.018 35.7585C170.074 36.0315 172.194 36.4489 174.376 37.0122C174.291 36.0573 174 35.1745 173.506 34.3639C173.011 33.5532 172.324 32.8542 171.446 32.2651C170.567 31.676 169.511 31.2209 168.274 30.8963C167.038 30.5734 165.634 30.4102 164.065 30.4102C163.211 30.4102 162.273 30.4617 161.25 30.5631C160.226 30.6661 159.168 30.819 158.078 31.0234C156.985 31.2277 155.907 31.4836 154.84 31.7911C153.774 32.0985 152.781 32.466 151.859 32.892L149.555 26.6747C150.698 26.2659 151.922 25.8898 153.227 25.548C154.533 25.208 155.867 24.9126 157.231 24.6652C158.596 24.4179 159.96 24.2256 161.325 24.0899C162.689 23.9542 164.011 23.8855 165.291 23.8855C170.936 23.8855 175.134 25.3265 177.88 28.2101C180.626 31.0938 182 35.5111 182 41.4639V54.6147H174.426V51.774C173.641 52.2343 172.784 52.6688 171.855 53.0793C170.926 53.488 169.914 53.847 168.824 54.1544C167.732 54.4619 166.56 54.704 165.305 54.8844C164.051 55.063 162.725 55.1523 161.327 55.1523C158.972 55.1523 156.904 54.8964 155.122 54.3846C153.339 53.8728 151.85 53.1652 150.656 52.26C149.463 51.3566 148.563 50.2935 147.956 49.0741C147.35 47.8547 147.048 46.5288 147.048 45.0947" fill="black"/>
<g opacity="0.6">
<mask id="mask2_65_23519" style="mask-type:luminance" maskUnits="userSpaceOnUse" x="81" y="22" width="29" height="33">
<path d="M109.997 22.0261H81.7051V54.806H109.997V22.0261Z" fill="white"/>
</mask>
<g mask="url(#mask2_65_23519)">
<path d="M108.289 54.6169V47.7744H99.9456V23.4033H99.9216L99.9456 23.3535C99.9353 23.3707 99.925 23.3879 99.9147 23.405L84.2581 28.1281L84.4797 35.0805L92.1431 33.339V47.7744H83.4062V54.6169H108.287H108.289Z" fill="black"/>
</g>
</g>
</g>
<path d="M0 24.3992V36.0403L7.54834 28.8509V24.3992H0Z" fill="black"/>
</g>
<path d="M7.59732 0.128296V2.33354H3.07004V4.71569H6.45863V6.8574H3.07004V11.4293H0.363281V0.128296H7.59904H7.59732Z" fill="black"/>
<path d="M27.0232 9.4319H22.8755L22.2108 11.4276H19.377L23.3976 0.128296H26.532L30.5526 11.4293H27.6879L27.0232 9.43362V9.4319ZM26.3276 7.30738L24.9502 3.16996L23.5882 7.30738H26.3276Z" fill="black"/>
<path d="M43.1063 2.77717C43.5821 1.90297 44.2433 1.22113 45.0934 0.733365C45.9436 0.2456 46.9054 0 47.9822 0C49.3013 0 50.4297 0.353802 51.3708 1.06312C52.3103 1.77073 52.9389 2.73767 53.2549 3.96052H50.2785C50.057 3.48821 49.7427 3.12925 49.3373 2.88194C48.9303 2.63462 48.4683 2.51096 47.9513 2.51096C47.1166 2.51096 46.4417 2.80637 45.9247 3.39718C45.4077 3.988 45.1484 4.77632 45.1484 5.76387C45.1484 6.75143 45.4077 7.53975 45.9247 8.13057C46.4417 8.72138 47.1166 9.01679 47.9513 9.01679C48.4683 9.01679 48.9303 8.89313 49.3373 8.64581C49.7444 8.39849 50.057 8.03954 50.2785 7.56723H53.2549C52.9389 8.79008 52.3103 9.75359 51.3708 10.456C50.4314 11.1585 49.3013 11.5106 47.9822 11.5106C46.9054 11.5106 45.9419 11.2667 45.0934 10.7789C44.2433 10.2912 43.5821 9.61104 43.1063 8.74199C42.6323 7.87294 42.3936 6.88024 42.3936 5.76387C42.3936 4.64751 42.6306 3.65309 43.1063 2.77717Z" fill="black"/>
<path d="M68.6618 0.128296V6.88831C68.6618 7.565 68.825 8.0854 69.153 8.4495C69.4794 8.81361 69.9603 8.99738 70.594 8.99738C71.2278 8.99738 71.7121 8.81533 72.0504 8.4495C72.3888 8.0854 72.5571 7.56328 72.5571 6.88831V0.128296H75.2638V6.87285C75.2638 7.88102 75.0526 8.7346 74.6301 9.4319C74.2076 10.1292 73.6408 10.6548 72.9281 11.0103C72.2153 11.3641 71.4218 11.541 70.5459 11.541C69.67 11.541 68.8851 11.3675 68.1947 11.0171C67.5025 10.6685 66.9564 10.1429 66.5562 9.43877C66.1543 8.73632 65.9551 7.8793 65.9551 6.87114V0.128296H68.6618Z" fill="black"/>
<path d="M90.948 9.30309H94.4946V11.4276H88.2412V0.128296H90.948V9.30309Z" fill="black"/>
<path d="M114.115 0.835899C114.991 1.30821 115.669 1.97116 116.15 2.82475C116.631 3.67833 116.87 4.66245 116.87 5.77882C116.87 6.89518 116.629 7.86556 116.15 8.7243C115.669 9.58304 114.989 10.2477 114.108 10.72C113.227 11.1923 112.205 11.4276 111.044 11.4276H106.881V0.128296H111.044C112.215 0.128296 113.239 0.363591 114.115 0.835899ZM113.26 8.19188C113.83 7.62339 114.115 6.81789 114.115 5.7771C114.115 4.7363 113.83 3.92565 113.26 3.34686C112.689 2.76807 111.892 2.47781 110.869 2.47781H109.586V9.04547H110.869C111.892 9.04547 112.689 8.76209 113.26 8.19188Z" fill="black"/>
<path d="M136.393 9.4319H132.246L131.581 11.4276H128.747L132.768 0.128296H135.902L139.923 11.4293H137.058L136.393 9.43362V9.4319ZM135.698 7.30738L134.32 3.16996L132.958 7.30738H135.698Z" fill="black"/>
<path d="M159.457 0.835899C160.333 1.30821 161.011 1.97116 161.492 2.82475C161.973 3.67833 162.212 4.66245 162.212 5.77882C162.212 6.89518 161.971 7.86556 161.492 8.7243C161.011 9.58304 160.331 10.2477 159.45 10.72C158.569 11.1923 157.547 11.4276 156.386 11.4276H152.223V0.128296H156.386C157.557 0.128296 158.581 0.363591 159.457 0.835899ZM158.601 8.19188C159.172 7.62339 159.457 6.81789 159.457 5.7771C159.457 4.7363 159.172 3.92565 158.601 3.34686C158.031 2.76807 157.234 2.47781 156.211 2.47781H154.928V9.04547H156.211C157.234 9.04547 158.031 8.76209 158.601 8.19188Z" fill="black"/>
<path d="M177.521 2.33354V4.61952H181.147V6.74404H177.521V9.22237H181.621V11.4276H174.812V0.128296H181.621V2.33354H177.521Z" fill="black"/>
</svg>
